<svg width="117" height="25" viewBox="0 0 117 25" fill="none" xmlns="http://www.w3.org/2000/svg">
<path d="M0.791992 11.304C0.791992 9.95999 1.05599 8.76799 1.58399 7.72799C2.12799 6.68799 2.86399 5.88799 3.79199 5.32799C4.71999 4.76799 5.75199 4.48799 6.88799 4.48799C7.75199 4.48799 8.57599 4.67999 9.35999 5.06399C10.144 5.43199 10.768 5.92799 11.232 6.55199V0.23999H14.64V18H11.232V16.032C10.816 16.688 10.232 17.216 9.47999 17.616C8.72799 18.016 7.85599 18.216 6.86399 18.216C5.74399 18.216 4.71999 17.928 3.79199 17.352C2.86399 16.776 2.12799 15.968 1.58399 14.928C1.05599 13.872 0.791992 12.664 0.791992 11.304ZM11.256 11.352C11.256 10.536 11.096 9.83999 10.776 9.26399C10.456 8.67199 10.024 8.22399 9.47999 7.91999C8.93599 7.59999 8.35199 7.43999 7.72799 7.43999C7.10399 7.43999 6.52799 7.59199 5.99999 7.89599C5.47199 8.19999 5.03999 8.64799 4.70399 9.23999C4.38399 9.81599 4.22399 10.504 4.22399 11.304C4.22399 12.104 4.38399 12.808 4.70399 13.416C5.03999 14.008 5.47199 14.464 5.99999 14.784C6.54399 15.104 7.11999 15.264 7.72799 15.264C8.35199 15.264 8.93599 15.112 9.47999 14.808C10.024 14.488 10.456 14.04 10.776 13.464C11.096 12.872 11.256 12.168 11.256 11.352Z" fill="white"/>
<path d="M21.8336 7.46399V13.896C21.8336 14.344 21.9376 14.672 22.1456 14.88C22.3696 15.072 22.7376 15.168 23.2496 15.168H24.8096V18H22.6976C19.8656 18 18.4496 16.624 18.4496 13.872V7.46399H16.8656V4.70399H18.4496V1.41599H21.8336V4.70399H24.8096V7.46399H21.8336Z" fill="white"/>
<path d="M49.4571 4.51199C51.0891 4.51199 52.4011 5.01599 53.3931 6.02399C54.4011 7.01599 54.9051 8.40799 54.9051 10.2V18H51.5451V10.656C51.5451 9.61599 51.2811 8.82399 50.7531 8.27999C50.2251 7.71999 49.5051 7.43999 48.5931 7.43999C47.6811 7.43999 46.9531 7.71999 46.4091 8.27999C45.8811 8.82399 45.6171 9.61599 45.6171 10.656V18H42.2571V10.656C42.2571 9.61599 41.9931 8.82399 41.4651 8.27999C40.9371 7.71999 40.2171 7.43999 39.3051 7.43999C38.3771 7.43999 37.6411 7.71999 37.0971 8.27999C36.5691 8.82399 36.3051 9.61599 36.3051 10.656V18H32.9451V4.70399H36.3051V6.31199C36.7371 5.75199 37.2891 5.31199 37.9611 4.99199C38.6491 4.67199 39.4011 4.51199 40.2171 4.51199C41.2571 4.51199 42.1851 4.73599 43.0011 5.18399C43.8171 5.61599 44.4491 6.23999 44.8971 7.05599C45.3291 6.28799 45.9531 5.67199 46.7691 5.20799C47.6011 4.74399 48.4971 4.51199 49.4571 4.51199Z" fill="white"/>
<path d="M63.9975 18.216C62.7175 18.216 61.5655 17.936 60.5415 17.376C59.5175 16.8 58.7095 15.992 58.1175 14.952C57.5415 13.912 57.2535 12.712 57.2535 11.352C57.2535 9.99199 57.5495 8.79199 58.1415 7.75199C58.7495 6.71199 59.5735 5.91199 60.6135 5.35199C61.6535 4.77599 62.8135 4.48799 64.0935 4.48799C65.3735 4.48799 66.5335 4.77599 67.5735 5.35199C68.6135 5.91199 69.4295 6.71199 70.0215 7.75199C70.6295 8.79199 70.9335 9.99199 70.9335 11.352C70.9335 12.712 70.6215 13.912 69.9975 14.952C69.3895 15.992 68.5575 16.8 67.5015 17.376C66.4615 17.936 65.2935 18.216 63.9975 18.216ZM63.9975 15.288C64.6055 15.288 65.1735 15.144 65.7015 14.856C66.2455 14.552 66.6775 14.104 66.9975 13.512C67.3175 12.92 67.4775 12.2 67.4775 11.352C67.4775 10.088 67.1415 9.11999 66.4695 8.44799C65.8135 7.75999 65.0055 7.41599 64.0455 7.41599C63.0855 7.41599 62.2775 7.75999 61.6215 8.44799C60.9815 9.11999 60.6615 10.088 60.6615 11.352C60.6615 12.616 60.9735 13.592 61.5975 14.28C62.2375 14.952 63.0375 15.288 63.9975 15.288Z" fill="white"/>
<path d="M80.7662 4.51199C82.3502 4.51199 83.6302 5.01599 84.6062 6.02399C85.5822 7.01599 86.0702 8.40799 86.0702 10.2V18H82.7102V10.656C82.7102 9.59999 82.4462 8.79199 81.9182 8.23199C81.3902 7.65599 80.6702 7.36799 79.7582 7.36799C78.8302 7.36799 78.0942 7.65599 77.5502 8.23199C77.0222 8.79199 76.7582 9.59999 76.7582 10.656V18H73.3982V4.70399H76.7582V6.35999C77.2062 5.78399 77.7742 5.33599 78.4622 5.01599C79.1662 4.67999 79.9342 4.51199 80.7662 4.51199Z" fill="white"/>
<path d="M101.625 11.064C101.625 11.544 101.593 11.976 101.529 12.36H91.8094C91.8894 13.32 92.2254 14.072 92.8174 14.616C93.4094 15.16 94.1374 15.432 95.0014 15.432C96.2494 15.432 97.1374 14.896 97.6654 13.824H101.289C100.905 15.104 100.169 16.16 99.0814 16.992C97.9934 17.808 96.6574 18.216 95.0734 18.216C93.7934 18.216 92.6414 17.936 91.6174 17.376C90.6094 16.8 89.8174 15.992 89.2414 14.952C88.6814 13.912 88.4014 12.712 88.4014 11.352C88.4014 9.97599 88.6814 8.76799 89.2414 7.72799C89.8014 6.68799 90.5854 5.88799 91.5934 5.32799C92.6014 4.76799 93.7614 4.48799 95.0734 4.48799C96.3374 4.48799 97.4654 4.75999 98.4574 5.30399C99.4654 5.84799 100.241 6.62399 100.785 7.63199C101.345 8.62399 101.625 9.76799 101.625 11.064ZM98.1454 10.104C98.1294 9.23999 97.8174 8.55199 97.2094 8.03999C96.6014 7.51199 95.8574 7.24799 94.9774 7.24799C94.1454 7.24799 93.4414 7.50399 92.8654 8.01599C92.3054 8.51199 91.9614 9.20799 91.8334 10.104H98.1454Z" fill="white"/>
<path d="M116.798 4.70399L108.566 24.288H104.99L107.87 17.664L102.542 4.70399H106.31L109.742 13.992L113.222 4.70399H116.798Z" fill="white"/>
</svg>
